
>>
>> "C:\Program Files (x86)\ffmpegyag\bin\ffmpeg.exe" -i "C:\Users\Public\Documents\Unity Projects\test\Assets\Resources\cup\饮料·背景 (mp3cut.net).m4a" -strict experimental -f ogg -map_chapters -1 -map 0:0 -sn -c:a:0 libvorbis -b:a:0 64k -ac:a:0 2 -vn -y "C:\Users\Public\Documents\Unity Projects\test\Assets\Resources\cup\bgm.ogg"
>>

ffmpeg version 2.5.2 Copyright (c) 2000-2014 the FFmpeg developers
  built on Dec 30 2014 17:18:09 with gcc 4.9.2 (GCC)
  configuration: --disable-static --enable-shared --enable-gpl --enable-version3 --disable-w32threads --enable-avisynth --enable-bzlib --enable-fontconfig --enable-frei0r --enable-gnutls --enable-iconv --enable-libass --enable-libbluray --enable-libbs2b --enable-libcaca --enable-libfreetype --enable-libgme --enable-libgsm --enable-libilbc --enable-libmodplug --enable-libmp3lame --enable-libopencore-amrnb --enable-libopencore-amrwb --enable-libopenjpeg --enable-libopus --enable-librtmp --enable-libschroedinger --enable-libsoxr --enable-libspeex --enable-libtheora --enable-libtwolame --enable-libvidstab --enable-libvo-aacenc --enable-libvo-amrwbenc --enable-libvorbis --enable-libvpx --enable-libwavpack --enable-libwebp --enable-libx264 --enable-libx265 --enable-libxavs --enable-libxvid --enable-lzma --enable-decklink --enable-zlib
  libavutil      54. 15.100 / 54. 15.100
  libavcodec     56. 13.100 / 56. 13.100
  libavformat    56. 15.102 / 56. 15.102
  libavdevice    56.  3.100 / 56.  3.100
  libavfilter     5.  2.103 /  5.  2.103
  libswscale      3.  1.101 /  3.  1.101
  libswresample   1.  1.100 /  1.  1.100
  libpostproc    53.  3.100 / 53.  3.100
Input #0, mov,mp4,m4a,3gp,3g2,mj2, from 'C:\Users\Public\Documents\Unity Projects\test\Assets\Resources\cup\饮料·背景 (mp3cut.net).m4a':
  Metadata:
    major_brand     : isom
    minor_version   : 512
    compatible_brands: isomiso2mp41
    encoder         : Lavf58.12.100
  Duration: 00:01:04.62, start: 0.023220, bitrate: 65 kb/s
    Stream #0:0(und): Audio: aac (LC) (mp4a / 0x6134706D), 44100 Hz, stereo, fltp, 64 kb/s (default)
    Metadata:
      handler_name    : SoundHandler
Output #0, ogg, to 'C:\Users\Public\Documents\Unity Projects\test\Assets\Resources\cup\bgm.ogg':
  Metadata:
    major_brand     : isom
    minor_version   : 512
    compatible_brands: isomiso2mp41
    encoder         : Lavf56.15.102
    Stream #0:0(und): Audio: vorbis (libvorbis), 44100 Hz, stereo, fltp, 64 kb/s (default)
    Metadata:
      handler_name    : SoundHandler
      encoder         : Lavc56.13.100 libvorbis
      major_brand     : isom
      minor_version   : 512
      compatible_brands: isomiso2mp41
Stream mapping:
  Stream #0:0 -> #0:0 (aac (native) -> vorbis (libvorbis))
Press [q] to stop, [?] for help
video:0kB audio:366kB subtitle:0kB other streams:0kB global headers:4kB muxing overhead: 2.301702%
